<svg xmlns="http://www.w3.org/2000/svg" viewBox="0 0 100 100" width="100" height="100"><circle cx="50" cy="50" r="49" fill="#e2b755"/><path d="M50 50 L50.00 5.00 A45 45 0 0 1 72.50 11.03 Z" fill="#d23a33" stroke="#0b1310" stroke-width="1"/><path d="M50 50 L72.50 11.03 A45 45 0 0 1 88.97 27.50 Z" fill="#151515" stroke="#0b1310" stroke-width="1"/><path d="M50 50 L88.97 27.50 A45 45 0 0 1 95.00 50.00 Z" fill="#d23a33" stroke="#0b1310" stroke-width="1"/><path d="M50 50 L95.00 50.00 A45 45 0 0 1 88.97 72.50 Z" fill="#151515" stroke="#0b1310" stroke-width="1"/><path d="M50 50 L88.97 72.50 A45 45 0 0 1 72.50 88.97 Z" fill="#d23a33" stroke="#0b1310" stroke-width="1"/><path d="M50 50 L72.50 88.97 A45 45 0 0 1 50.00 95.00 Z" fill="#151515" stroke="#0b1310" stroke-width="1"/><path d="M50 50 L50.00 95.00 A45 45 0 0 1 27.50 88.97 Z" fill="#d23a33" stroke="#0b1310" stroke-width="1"/><path d="M50 50 L27.50 88.97 A45 45 0 0 1 11.03 72.50 Z" fill="#151515" stroke="#0b1310" stroke-width="1"/><path d="M50 50 L11.03 72.50 A45 45 0 0 1 5.00 50.00 Z" fill="#d23a33" stroke="#0b1310" stroke-width="1"/><path d="M50 50 L5.00 50.00 A45 45 0 0 1 11.03 27.50 Z" fill="#151515" stroke="#0b1310" stroke-width="1"/><path d="M50 50 L11.03 27.50 A45 45 0 0 1 27.50 11.03 Z" fill="#d23a33" stroke="#0b1310" stroke-width="1"/><path d="M50 50 L27.50 11.03 A45 45 0 0 1 50.00 5.00 Z" fill="#151515" stroke="#0b1310" stroke-width="1"/><circle cx="50" cy="50" r="18" fill="#1f7a4d" stroke="#e2b755" stroke-width="2.5"/><circle cx="50" cy="50" r="6.5" fill="#0b1310"/><circle cx="50" cy="7.5" r="4.6" fill="#f6f1e4" stroke="#0b1310" stroke-width="0.8"/></svg>
